<?xml version="1.0" encoding="utf-8"?>
<!-- Generator: Adobe Illustrator 16.0.0, SVG Export Plug-In . SVG Version: 6.00 Build 0)  -->
<!DOCTYPE svg PUBLIC "-//W3C//DTD SVG 1.1//EN" "http://www.w3.org/Graphics/SVG/1.1/DTD/svg11.dtd">
<svg version="1.1" id="图层_1" xmlns="http://www.w3.org/2000/svg" xmlns:xlink="http://www.w3.org/1999/xlink" x="0px" y="0px"
	 width="50px" height="50px" viewBox="0 0 50 50" enable-background="new 0 0 50 50" xml:space="preserve">
<g>
	<radialGradient id="SVGID_1_" cx="24.6611" cy="47.0347" r="8.0392" gradientUnits="userSpaceOnUse">
		<stop  offset="0" style="stop-color:#92C26E"/>
		<stop  offset="0.1791" style="stop-color:#ADD192"/>
		<stop  offset="0.4439" style="stop-color:#D0E5C1"/>
		<stop  offset="0.6787" style="stop-color:#EAF3E3"/>
		<stop  offset="0.872" style="stop-color:#F9FCF7"/>
		<stop  offset="1" style="stop-color:#FFFFFF"/>
	</radialGradient>
	<ellipse fill="url(#SVGID_1_)" cx="24.739" cy="46.917" rx="8.038" ry="3.083"/>
	<g display="none">
		<path display="inline" fill="#A2DD7C" d="M23.217,37.908c-1.671,0-7.124-0.868-7.124-12.043c0-8.225,5.928-23.603,7.576-25.625
			c0.491-0.512,0.958-0.615,1.266-0.615c0.48,0,0.909,0.25,1.145,0.667c0.355,0.704,0.659,1.607,0.98,2.564
			c0.188,0.561,0.379,1.128,0.579,1.646c0.1,0.259,0.259,0.652,0.462,1.156c1.593,3.938,5.824,14.4,5.806,20.207
			c-0.204,11.689-7.037,12.027-7.815,12.027l-2.54-0.001C23.545,37.895,23.417,37.908,23.217,37.908z"/>
		<g display="inline">
			<path fill="#FFFFFF" d="M24.935,0c0.351,0,0.653,0.184,0.819,0.477c0.54,1.07,1.004,2.782,1.535,4.161
				c0.87,2.262,6.264,14.749,6.243,21.228c-0.198,11.371-6.786,11.654-7.44,11.654c-0.034,0-0.052-0.001-0.052-0.001h-2.497
				c0,0-0.119,0.016-0.326,0.016c-1.39,0-6.75-0.71-6.75-11.668c0-8.351,6.009-23.568,7.492-25.388C24.281,0.142,24.626,0,24.935,0
				 M24.935-0.749L24.935-0.749c-0.54,0-1.078,0.251-1.516,0.707L23.397-0.02l-0.019,0.024c-1.666,2.044-7.66,17.57-7.66,25.861
				c0,4.865,1.032,8.387,3.067,10.468c1.722,1.76,3.672,1.95,4.431,1.95c0.173,0,0.299-0.009,0.367-0.016h2.456l0.052,0.001
				c0.816,0,7.979-0.348,8.189-12.39c0.019-5.891-4.232-16.403-5.833-20.36c-0.203-0.501-0.361-0.893-0.46-1.15
				c-0.196-0.509-0.388-1.08-0.573-1.631c-0.326-0.97-0.633-1.886-0.992-2.598C26.102-0.429,25.552-0.749,24.935-0.749L24.935-0.749
				z"/>
		</g>
	</g>
	<g>
		<path fill="#A2DD7C" d="M23.959,0.477c0.688-0.715,1.482-0.551,1.795,0c0.54,1.07,1.004,2.782,1.535,4.161
			c0.87,2.262,6.264,14.749,6.243,21.228c-0.209,11.965-7.492,11.653-7.492,11.653h-2.497c0,0-7.076,0.938-7.076-11.653
			C16.467,17.514,22.476,2.297,23.959,0.477z"/>
	</g>
	<path fill="#D4F2C0" d="M24.817,0.013c-0.278,0.032-0.577,0.171-0.858,0.464c-1.483,1.82-7.492,17.037-7.492,25.388
		c0,12.591,7.076,11.653,7.076,11.653h1.274V0.013z"/>
	<path fill="#143A30" d="M23.983,47.402h1.873l-0.362-20.888c0,0-0.47-2.446-0.677-2.446c-0.338,0-0.598,2.472-0.598,2.472
		L23.983,47.402z"/>
</g>
</svg>
