<?xml version="1.0" encoding="UTF-8"?>
<svg width="72px" height="72px" viewBox="0 0 304 575" version="1.1" xmlns="http://www.w3.org/2000/svg" xmlns:xlink="http://www.w3.org/1999/xlink">
    <!-- Generator: Sketch 53 (72520) - https://sketchapp.com -->
    <title>highlighted pin copy</title>
    <desc>Created with Sketch.</desc>
    <defs>
        <polygon id="path-1" points="0.498472965 0.455902515 9.75423848 0.455902515 9.75423848 117.092843 0.498472965 117.092843"></polygon>
        <polygon id="path-3" points="0 0.702096712 47.7875173 0.702096712 47.7875173 134.281366 0 134.281366"></polygon>
        <polygon id="path-5" points="0.509615355 0.703944294 49.0181568 0.703944294 49.0181568 134.284138 0.509615355 134.284138"></polygon>
    </defs>
    <g id="Webmab-mobile" stroke="none" stroke-width="1" fill="none" fill-rule="evenodd">
        <g id="highlighted-pin-copy" transform="translate(0.000000, 0.141815)">
            <rect id="Rectangle" fill="#86C232" x="140.41553" y="374.5235" width="22.2253148" height="200.027833"></rect>
            <g id="highlighted-map-pin" transform="translate(-0.000000, 0.000000)">
                <path d="M151.740764,389.708333 C252.901273,286.629781 303.481527,207.209687 303.481527,151.448054 C303.481527,67.8056033 235.544873,-1.49213975e-13 151.740764,-1.49213975e-13 C67.9366539,-1.49213975e-13 -2.62900812e-13,67.8056033 -2.62900812e-13,151.448054 C-2.62900812e-13,207.209687 50.5802545,286.629781 151.740764,389.708333 Z" id="Oval" fill="#FFFFFF"></path>
                <path d="M154.422592,350.40218 C237.810791,265.432907 279.504891,199.965675 279.504891,154.000483 C279.504891,85.0526944 223.503638,29.1594687 154.422592,29.1594687 C85.3415453,29.1594687 29.3402924,85.0526944 29.3402924,154.000483 C29.3402924,199.965675 71.0343922,265.432907 154.422592,350.40218 Z" id="Oval-Copy-4" fill="#86C232"></path>
                <g id="tree" transform="translate(105.422592, 75.858185)">
                    <g id="stem" transform="translate(42.278828, 93.000000)">
                        <path d="M8.69445333,117.092843 L8.69445333,4.02081238 C8.69445333,2.05313733 7.09320589,0.454978723 5.12172784,0.454978723 C3.15024978,0.454978723 1.55825812,2.05313733 1.55825812,4.02081238 L1.55825812,117.092843 L8.69445333,117.092843 Z" id="Fill-7" fill="#FFFFFF"></path>
                        <mask id="mask-2" fill="white">
                            <use xlink:href="#path-1"></use>
                        </mask>
                        <g id="Clip-8"></g>
                    </g>
                    <g id="left-part" transform="translate(0.000000, 0.528913)">
                        <mask id="mask-4" fill="white">
                            <use xlink:href="#path-3"></use>
                        </mask>
                        <g id="Clip-2"></g>
                        <path d="M36.7605083,7.6388441 C22.0567135,30.7890491 -0.12931426,68.6182948 -0.12931426,86.2257532 C-0.12931426,112.581513 22.047059,133.976515 49.5044407,134.272128 C49.5720222,134.281366 49.6492581,134.281366 49.7168396,134.281366 L49.7168396,0.701145317 C44.7061571,0.69193501 39.7147835,3.00141277 36.7605083,7.6388441" id="Fill-1" fill="#FFFFFF" mask="url(#mask-4)"></path>
                    </g>
                    <g id="right-part" transform="translate(47.278828, 0.528913)">
                        <mask id="mask-6" fill="white">
                            <use xlink:href="#path-5"></use>
                        </mask>
                        <g id="Clip-5"></g>
                        <path d="M6.37569749,7.50304681 C3.54343325,2.97647041 -1.15849563,0.713182205 -5.86968028,0.703944294 L-5.86968028,134.284138 L-5.50870542,134.284138 C21.0831089,134.284138 42.6397868,112.769043 42.6397868,86.2192867 C42.6397868,68.4640217 20.8146917,30.5978244 6.37569749,7.50304681" id="Fill-4" fill="#E6E6E6" mask="url(#mask-6)"></path>
                    </g>
                </g>
            </g>
        </g>
    </g>
</svg>