<?xml version="1.0" encoding="utf-8"?>
<!-- Generator: Adobe Illustrator 14.0.0, SVG Export Plug-In . SVG Version: 6.00 Build 43363)  -->
<!DOCTYPE svg PUBLIC "-//W3C//DTD SVG 1.1//EN" "http://www.w3.org/Graphics/SVG/1.1/DTD/svg11.dtd">
<svg version="1.1" id="Capa_1" xmlns="http://www.w3.org/2000/svg" xmlns:xlink="http://www.w3.org/1999/xlink" x="0px" y="0px"
	 width="800px" height="600px" viewBox="0 0 800 600" enable-background="new 0 0 800 600" xml:space="preserve">
<circle fill="#7D8B53" cx="400" cy="300" r="300"/>
<g>
	<polygon fill="#FFFFFF" points="141.379,300 368.965,455.173 368.965,302.824 368.965,144.828 	"/>
	<path fill="#FFFFFF" d="M368.965,465.518c-2.038,0-4.086-0.61-5.824-1.801L135.555,308.545c-2.834-1.924-4.521-5.121-4.521-8.545
		c0-3.424,1.686-6.621,4.521-8.545l227.586-155.172c3.186-2.152,7.283-2.39,10.655-0.6c3.393,1.79,5.514,5.307,5.514,9.145v310.345
		c0,3.838-2.121,7.354-5.514,9.145C372.276,465.124,370.621,465.518,368.965,465.518z M159.741,300l198.879,135.59V164.41
		L159.741,300z"/>
</g>
<g>
	<polygon fill="#FFFFFF" points="368.965,300 596.552,455.173 596.552,302.824 596.552,144.828 	"/>
	<path fill="#FFFFFF" d="M596.552,465.518c-2.038,0-4.086-0.61-5.824-1.801L363.142,308.545c-2.835-1.924-4.521-5.121-4.521-8.545
		c0-3.424,1.686-6.621,4.521-8.545l227.586-155.172c3.176-2.152,7.283-2.39,10.655-0.6c3.393,1.79,5.514,5.307,5.514,9.145v310.345
		c0,3.838-2.121,7.354-5.514,9.145C599.862,465.124,598.207,465.518,596.552,465.518z M387.328,300l198.879,135.59V164.41
		L387.328,300z"/>
</g>
</svg>
