<?xml version="1.0" encoding="utf-8"?>
<!-- Generator: Adobe Illustrator 14.0.0, SVG Export Plug-In . SVG Version: 6.00 Build 43363)  -->
<!DOCTYPE svg PUBLIC "-//W3C//DTD SVG 1.1//EN" "http://www.w3.org/Graphics/SVG/1.1/DTD/svg11.dtd">
<svg version="1.1" id="Capa_1" xmlns="http://www.w3.org/2000/svg" xmlns:xlink="http://www.w3.org/1999/xlink" x="0px" y="0px"
	 width="800px" height="600px" viewBox="0 0 800 600" enable-background="new 0 0 800 600" xml:space="preserve">
<circle fill="#86C232" cx="400" cy="300" r="300"/>
<g>
	<polygon fill="#FFFFFF" points="251.379,300 478.966,144.827 478.966,297.176 478.966,455.172 	"/>
	<path fill="#FFFFFF" d="M478.966,134.482c1.655,0,3.312,0.394,4.831,1.198c3.395,1.79,5.514,5.309,5.514,9.146v310.345
		c0,3.838-2.119,7.355-5.514,9.145c-3.383,1.801-7.5,1.553-10.654-0.6L245.555,308.545c-2.834-1.924-4.521-5.121-4.521-8.545
		s1.687-6.621,4.521-8.545l227.588-155.172C474.879,135.093,476.928,134.482,478.966,134.482z M468.621,435.59V164.4L269.741,300
		L468.621,435.59z"/>
</g>
</svg>
