<?xml version="1.0" encoding="utf-8"?>
<!-- Generator: Adobe Illustrator 14.0.0, SVG Export Plug-In . SVG Version: 6.00 Build 43363)  -->
<!DOCTYPE svg PUBLIC "-//W3C//DTD SVG 1.1//EN" "http://www.w3.org/Graphics/SVG/1.1/DTD/svg11.dtd">
<svg version="1.1" id="Capa_1" xmlns="http://www.w3.org/2000/svg" xmlns:xlink="http://www.w3.org/1999/xlink" x="0px" y="0px"
	 width="800px" height="600px" viewBox="0 0 800 600" enable-background="new 0 0 800 600" xml:space="preserve">
<circle fill="#86C232" cx="400" cy="300" r="300"/>
<g>
	<polygon fill="#FFFFFF" points="548.621,300 321.034,455.173 321.034,302.824 321.034,144.828 	"/>
	<path fill="#FFFFFF" d="M321.034,465.518c-1.655,0-3.311-0.394-4.831-1.199c-3.394-1.79-5.514-5.308-5.514-9.146V144.828
		c0-3.838,2.12-7.355,5.514-9.145c3.383-1.8,7.5-1.552,10.655,0.6l227.587,155.172c2.834,1.924,4.521,5.121,4.521,8.545
		s-1.687,6.621-4.521,8.545L326.858,463.717C325.121,464.907,323.072,465.518,321.034,465.518z M331.379,164.41V435.6L530.259,300
		L331.379,164.41z"/>
</g>
</svg>
