<?xml version="1.0" encoding="utf-8"?>
<!-- Generator: Adobe Illustrator 14.0.0, SVG Export Plug-In . SVG Version: 6.00 Build 43363)  -->
<!DOCTYPE svg PUBLIC "-//W3C//DTD SVG 1.1//EN" "http://www.w3.org/Graphics/SVG/1.1/DTD/svg11.dtd">
<svg version="1.1" id="Capa_1" xmlns="http://www.w3.org/2000/svg" xmlns:xlink="http://www.w3.org/1999/xlink" x="0px" y="0px"
	 width="800px" height="600px" viewBox="0 0 800 600" enable-background="new 0 0 800 600" xml:space="preserve">
<circle fill="#7D8B53" cx="400" cy="300" r="300"/>
<g>
	<polygon fill="#FFFFFF" points="658.621,300 431.034,455.173 431.034,302.824 431.034,144.828 	"/>
	<path fill="#FFFFFF" d="M431.034,465.518c-1.655,0-3.31-0.394-4.831-1.2c-3.393-1.79-5.514-5.307-5.514-9.145V144.828
		c0-3.838,2.121-7.355,5.514-9.145c3.383-1.8,7.5-1.552,10.655,0.6l227.587,155.172c2.834,1.924,4.521,5.121,4.521,8.545
		c0,3.424-1.687,6.621-4.521,8.545L436.858,463.717C435.121,464.907,433.072,465.518,431.034,465.518z M441.379,164.41V435.6
		L640.259,300L441.379,164.41z"/>
</g>
<g>
	<polygon fill="#FFFFFF" points="431.034,300 203.448,455.173 203.448,302.824 203.448,144.828 	"/>
	<path fill="#FFFFFF" d="M203.448,465.518c-1.655,0-3.311-0.394-4.831-1.2c-3.393-1.79-5.514-5.307-5.514-9.145V144.828
		c0-3.838,2.121-7.355,5.514-9.145c3.383-1.8,7.5-1.552,10.655,0.6l227.586,155.172c2.835,1.924,4.521,5.121,4.521,8.545
		c0,3.424-1.686,6.621-4.521,8.545L209.272,463.717C207.535,464.907,205.486,465.518,203.448,465.518z M213.793,164.41V435.6
		L412.672,300L213.793,164.41z"/>
</g>
</svg>
