<?xml version="1.0" encoding="utf-8"?>
<!-- Generator: Adobe Illustrator 16.0.0, SVG Export Plug-In . SVG Version: 6.00 Build 0)  -->
<!DOCTYPE svg PUBLIC "-//W3C//DTD SVG 1.1//EN" "http://www.w3.org/Graphics/SVG/1.1/DTD/svg11.dtd">
<svg version="1.1" id="图层_1" xmlns="http://www.w3.org/2000/svg" xmlns:xlink="http://www.w3.org/1999/xlink" x="0px" y="0px"
	 width="500px" height="500px" viewBox="0 0 500 500" enable-background="new 0 0 500 500" xml:space="preserve">
<g>
	<g>
		<path fill="#FF8E20" d="M439.121,381.086l-91.889-106.902l-15.614-18.619h63.061c1.802,0,4.204-0.6,5.405-1.801
			c3.603-3.003,4.203-8.409,1.201-12.012l-72.67-84.081l-10.811-12.612h41.439c1.802,0,4.204-0.601,5.405-1.802
			c3.604-3.003,4.204-8.408,1.201-12.012l-55.253-64.262L255.945,3.322c-0.602-0.601-0.602-0.601-1.201-1.201
			c-3.604-3.003-9.008-3.003-12.011,1.201l-55.253,64.262l-54.652,63.661c-1.802,1.802-2.402,3.604-2.402,6.006
			c0,4.805,4.204,9.009,9.009,9.009h41.44l-10.811,12.612l-72.069,84.081c-1.802,1.802-2.402,3.604-2.402,6.006
			c0,4.805,4.204,9.008,9.009,9.008h63.061l-15.615,18.619L61.358,379.885c-1.802,1.802-2.402,3.604-2.402,6.006
			c0,4.805,4.204,9.008,9.009,9.008h148.343v84.081c0,6.006,2.402,10.811,6.005,15.015c3.604,3.604,9.009,6.006,15.015,6.006h25.825
			c6.006,0,10.811-2.402,15.014-6.006c3.604-3.604,6.006-9.009,6.006-15.015v-84.081h148.343c1.802,0,4.204-0.6,5.405-1.801
			C441.523,390.094,442.124,384.688,439.121,381.086z"/>
	</g>
</g>
</svg>
