<?xml version="1.0" encoding="utf-8"?>
<!-- Generator: Adobe Illustrator 16.0.0, SVG Export Plug-In . SVG Version: 6.00 Build 0)  -->
<!DOCTYPE svg PUBLIC "-//W3C//DTD SVG 1.1//EN" "http://www.w3.org/Graphics/SVG/1.1/DTD/svg11.dtd">
<svg version="1.1" id="图层_1" xmlns="http://www.w3.org/2000/svg" xmlns:xlink="http://www.w3.org/1999/xlink" x="0px" y="0px"
	 width="50px" height="50px" viewBox="0 0 50 50" enable-background="new 0 0 50 50" xml:space="preserve">
<g>
	
		<radialGradient id="SVGID_1_" cx="22.353" cy="45.9229" r="6.1806" gradientTransform="matrix(1.2486 0 0 1.2486 -3.2317 -11.1867)" gradientUnits="userSpaceOnUse">
		<stop  offset="0" style="stop-color:#E9882A"/>
		<stop  offset="0.1465" style="stop-color:#EDA055"/>
		<stop  offset="0.3693" style="stop-color:#F4C291"/>
		<stop  offset="0.574" style="stop-color:#F9DCC1"/>
		<stop  offset="0.7539" style="stop-color:#FCEFE3"/>
		<stop  offset="0.902" style="stop-color:#FEFBF7"/>
		<stop  offset="1" style="stop-color:#FFFFFF"/>
	</radialGradient>
	<ellipse fill="url(#SVGID_1_)" cx="24.751" cy="46.04" rx="7.716" ry="2.96"/>
	<g>
		<path fill="#A2DD7C" d="M23.291,37.513c-0.698,0-2.494-0.175-4.084-1.8c-1.909-1.951-2.878-5.276-2.878-9.883
			c0-7.919,5.714-22.728,7.302-24.675c0.4-0.419,0.856-0.635,1.308-0.635c0.506,0,0.956,0.262,1.205,0.702
			c0.349,0.69,0.643,1.566,0.953,2.493c0.18,0.534,0.36,1.072,0.55,1.566c0.095,0.247,0.247,0.622,0.441,1.103
			c1.532,3.788,5.603,13.849,5.584,19.448c-0.197,11.34-6.862,11.667-7.622,11.667l-2.432-0.001
			C23.606,37.5,23.481,37.513,23.291,37.513z"/>
		<g>
			<path fill="#E55403" d="M24.938,1c0.337,0,0.628,0.176,0.787,0.458c0.518,1.027,0.965,2.671,1.473,3.994
				c0.836,2.171,6.015,14.159,5.993,20.377c-0.189,10.917-6.514,11.189-7.142,11.189c-0.032,0-0.05-0.001-0.05-0.001h-2.396
				c0,0-0.114,0.015-0.312,0.015c-1.333,0-6.481-0.681-6.481-11.203c0-8.016,5.769-22.625,7.193-24.372
				C24.311,1.137,24.642,1,24.938,1 M24.939,0.04L24.939,0.04c-0.585,0-1.163,0.268-1.629,0.753l-0.027,0.028l-0.024,0.03
				c-1.659,2.035-7.409,16.784-7.409,24.979c0,4.736,1.015,8.174,3.015,10.219c1.717,1.755,3.668,1.944,4.427,1.944
				c0.167,0,0.291-0.008,0.363-0.015H26l0.05,0.001c0.808,0,7.896-0.341,8.102-12.132c0.02-5.707-4.076-15.832-5.619-19.644
				c-0.192-0.477-0.344-0.85-0.438-1.095c-0.184-0.479-0.365-1.021-0.542-1.546c-0.316-0.943-0.616-1.834-0.969-2.536
				C26.225,0.394,25.619,0.04,24.939,0.04L24.939,0.04z"/>
		</g>
	</g>
	<g>
		<path fill="#A2DD7C" d="M24.002,1.458c0.659-0.687,1.423-0.529,1.723,0c0.518,1.027,0.965,2.671,1.473,3.994
			c0.836,2.171,6.015,14.159,5.993,20.377C32.992,37.318,26,37.018,26,37.018h-2.396c0,0-6.794,0.899-6.794-11.188
			C16.809,17.813,22.578,3.205,24.002,1.458z"/>
	</g>
	<path fill="#D4F2C0" d="M24.826,1.012c-0.267,0.03-0.554,0.164-0.823,0.446c-1.425,1.747-7.193,16.355-7.193,24.372
		c0,12.087,6.794,11.188,6.794,11.188h1.223V1.012z"/>
	<path display="none" fill="#143A30" d="M24.026,46.506h1.797l-0.347-20.052c0,0-0.451-2.348-0.65-2.348
		c-0.324,0-0.573,2.372-0.573,2.372L24.026,46.506z"/>
	<path fill="#C15930" d="M24.026,46.506h1.797l-0.347-20.052c0,0-0.451-2.348-0.65-2.348c-0.324,0-0.573,2.372-0.573,2.372
		L24.026,46.506z"/>
</g>
</svg>
