<?xml version="1.0" encoding="utf-8"?>
<!-- Generator: Adobe Illustrator 16.0.0, SVG Export Plug-In . SVG Version: 6.00 Build 0)  -->
<!DOCTYPE svg PUBLIC "-//W3C//DTD SVG 1.1//EN" "http://www.w3.org/Graphics/SVG/1.1/DTD/svg11.dtd">
<svg version="1.1" id="图层_1" xmlns="http://www.w3.org/2000/svg" xmlns:xlink="http://www.w3.org/1999/xlink" x="0px" y="0px"
	 width="500px" height="500px" viewBox="0 0 500 500" enable-background="new 0 0 500 500" xml:space="preserve">
<g>
	<g>
		<g>
			<path fill="#7FC74A" d="M237.328,497.5c-5.034,0-9.832-1.896-13.18-5.207c-3.643-4.276-5.34-8.51-5.34-13.313v-86.581H67.965
				c-3.406,0-6.509-3.102-6.509-6.508c0-1.896,0.437-3.005,1.67-4.238l0.111-0.118l90.687-103.299l19.096-22.769H104.6
				c-3.406,0-6.509-3.103-6.509-6.508c0-1.896,0.437-3.005,1.67-4.238l0.068-0.068l86.48-100.893h-46.875
				c-3.406,0-6.509-3.103-6.509-6.509c0-1.896,0.437-3.005,1.67-4.238l0.067-0.067l54.714-63.733l55.325-64.346l0.065-0.091
				c1.343-1.88,3.078-2.275,4.295-2.275c1.407,0,2.823,0.523,4,1.475l1.048,1.048l54.591,63.589l55.254,64.263
				c0.986,1.184,1.452,2.737,1.285,4.344c-0.167,1.617-0.945,3.079-2.191,4.118l-0.087,0.072l-0.08,0.081
				c-0.517,0.516-2.102,1.069-3.638,1.069h-46.875l14.348,16.739l72.677,84.089c2.073,2.49,1.679,6.299-0.91,8.458l-0.087,0.072
				l-0.08,0.08c-0.517,0.516-2.101,1.068-3.638,1.068h-68.42l19.058,22.726l91.909,106.926c0.986,1.184,1.452,2.736,1.285,4.343
				c-0.167,1.617-0.945,3.08-2.191,4.119l-0.087,0.072l-0.08,0.08c-0.517,0.516-2.101,1.068-3.638,1.068H281.672v86.581
				c0,5.033-1.896,9.831-5.207,13.181c-4.275,3.643-8.508,5.34-13.312,5.34H237.328z"/>
			<path fill="#3C7F29" d="M249.062,5c0.789,0,1.63,0.307,2.336,0.847l0.877,0.876l54.531,63.52l55.221,64.225
				c0.564,0.688,0.822,1.573,0.727,2.494c-0.1,0.964-0.563,1.835-1.306,2.454l-0.174,0.146l-0.072,0.072
				c-0.322,0.183-1.19,0.426-1.958,0.426h-41.439h-10.871l7.075,8.254l10.823,12.627l72.635,84.04
				c1.174,1.442,0.91,3.698-0.585,4.944l-0.174,0.145l-0.07,0.071c-0.322,0.183-1.191,0.425-1.959,0.425h-63.061h-10.719
				l6.888,8.213l15.614,18.619l0.02,0.023l0.02,0.022l91.86,106.869c0.757,0.926,0.779,1.956,0.724,2.49
				c-0.1,0.964-0.563,1.836-1.306,2.455l-0.174,0.146l-0.071,0.071c-0.322,0.183-1.191,0.425-1.959,0.425H284.172h-5v5v84.081
				c0,4.342-1.605,8.467-4.411,11.348c-3.769,3.188-7.462,4.673-11.608,4.673h-25.825c-4.342,0-8.466-1.605-11.347-4.411
				c-3.187-3.77-4.673-7.464-4.673-11.609v-84.081v-5h-5H67.965c-2.061,0-4.009-1.947-4.009-4.008c0-1.311,0.234-1.767,0.938-2.471
				l0.115-0.114l0.107-0.122l90.687-103.299l0.038-0.043l0.036-0.043l15.615-18.619l6.888-8.213h-10.719H104.6
				c-2.061,0-4.009-1.948-4.009-4.008c0-1.311,0.234-1.767,0.938-2.47l0.136-0.136l0.125-0.146l72.069-84.081l10.811-12.612
				l7.075-8.254h-10.872h-41.44c-2.061,0-4.009-1.948-4.009-4.009c0-1.311,0.234-1.767,0.938-2.47l0.134-0.135l0.124-0.144
				l54.649-63.658l55.253-64.262l0.147-0.17l0.131-0.183C247.392,5.402,248.131,5,249.062,5 M249.062,0
				c-2.369,0-4.702,1.043-6.33,3.322l-55.253,64.262l-54.652,63.661c-1.802,1.802-2.402,3.604-2.402,6.006
				c0,4.805,4.204,9.009,9.009,9.009h41.44l-10.811,12.612l-72.069,84.081c-1.802,1.802-2.402,3.604-2.402,6.006
				c0,4.805,4.204,9.008,9.009,9.008h63.061l-15.615,18.619L61.358,379.885c-1.802,1.802-2.402,3.604-2.402,6.006
				c0,4.805,4.204,9.008,9.009,9.008h148.343v84.081c0,6.006,2.402,10.811,6.005,15.015c3.604,3.604,9.009,6.006,15.015,6.006
				h25.825c6.006,0,10.811-2.402,15.014-6.006c3.604-3.604,6.006-9.009,6.006-15.015v-84.081h148.343c1.802,0,4.204-0.6,5.405-1.801
				c3.604-3.004,4.204-8.41,1.201-12.012l-91.889-106.902l-15.614-18.619h63.061c1.802,0,4.204-0.6,5.405-1.801
				c3.603-3.003,4.203-8.409,1.201-12.012l-72.67-84.081l-10.811-12.612h41.439c1.802,0,4.204-0.601,5.405-1.802
				c3.604-3.003,4.204-8.408,1.201-12.012l-55.253-64.262L255.945,3.322c-0.602-0.601-0.602-0.601-1.201-1.201
				C253.094,0.746,251.065,0,249.062,0L249.062,0z"/>
		</g>
	</g>
</g>
</svg>
